<svg width="15" height="14" viewBox="0 0 15 14" fill="none" xmlns="http://www.w3.org/2000/svg">
<path fill-rule="evenodd" clip-rule="evenodd" d="M7.5 11C11.6421 11 15 8.53757 15 5.5C15 2.46243 11.6421 0 7.5 0C3.35786 0 0 2.46243 0 5.5C0 7.35497 1.25223 8.99546 3.1706 9.99166C3.17568 9.9943 3.17301 10.0022 3.16741 10.001C3.16489 10.0004 3.16239 10.0019 3.16167 10.0044L2.37004 12.7272C2.24132 13.17 2.72942 13.5361 3.11846 13.2887L6.61984 11.0622C6.71037 11.0046 6.81698 10.9781 6.92409 10.984C7.11417 10.9946 7.30623 11 7.5 11Z" fill="#3E3E3E"/>
</svg>
